<?xml version="1.0" encoding="utf-8"?>
<!-- Generator: Adobe Illustrator 26.3.1, SVG Export Plug-In . SVG Version: 6.00 Build 0)  -->
<svg version="1.1" id="Layer_1" xmlns="http://www.w3.org/2000/svg" xmlns:xlink="http://www.w3.org/1999/xlink" x="0px" y="0px"
	 viewBox="0 0 438.6 329.8" style="enable-background:new 0 0 438.6 329.8;" xml:space="preserve">
<style type="text/css">
	.st0{fill:#DDECFF;}
	.st1{fill:#60A8FF;}
	.st2{fill:#223A7A;}
	.st3{fill:#FFFFFF;}
	.st4{fill:#1C83FF;}
	.st5{fill:#FF9D8C;}
	.st6{fill:#8593B6;}
	.st7{fill:#8E9BBB;}
	.st8{fill:#DEE1EB;}
	.st9{fill:#818FB3;}
	.st10{fill:#6BAEFF;}
	.st11{fill:#43588E;}
	.st12{fill:#F6F7FA;}
	.st13{fill:#D9DEE8;}
	.st14{fill:#596B9B;}
	.st15{fill:#7A89AF;}
	.st16{fill:#BDC4D7;}
	.st17{fill:#6F7FA9;}
	.st18{fill:#9CA6C3;}
	.st19{fill:#D2E6FF;}
	.st20{fill:#FF5F42;}
	.st21{font-family:'Gotham-Book';}
	.st22{font-size:11.1314px;}
	.st23{fill:#67ACFF;}
</style>
<g>
	<g id="BACKGROUND">
		<path class="st0" d="M75.2,312.4c0,0-54.6-38.9-70.3-105.1c-15.7-66.2,8.3-146.5,53.8-187C104.1-20.3,186.1,7,222.5,41
			s36.4,33.9,36.4,33.9s34.8,19,80.3,17.4c45.5-1.7,86.1,60.4,96.8,109.2s-14.9,113.4-14.9,113.4L75.2,312.4z"/>
		<path class="st0" d="M50.3,322.3c0,0-38.1-20.7-48-68.7s33.1-91.9,37.2-115.9c4.1-24-5-53.8,33.1-77
			c38.1-23.2,105.9-14.9,131.6-20.7S259.7-5.4,311,3.7c51.3,9.1,101,36.4,103.5,96s-16.5,61.2,2.5,93.5s26.5,54.6,17.4,87.7
			s-28.1,42.2-28.1,42.2L50.3,322.3z"/>
		<path class="st0" d="M129.8,311.6c-2.4-2.5-37.1-72,1.6-135.7s135.8-56.3,174.4-31.4s57.6,57.1,61.6,91s-22.1,86.9-22.1,86.9
			L129.8,311.6z"/>
	</g>
	<g id="OBJECTS">
		<g>
			<g>
				<path class="st1" d="M368.9,194.5h-44.6c-2.8,0-5-2.2-5-5v-22.3c0-2.8,2.2-5,5-5h44.6c2.8,0,5,2.2,5,5v22.3
					C373.9,192.3,371.6,194.5,368.9,194.5z"/>
				<polygon class="st1" points="346.6,207.2 353.6,190.4 339.5,190.4 				"/>
			</g>
			<g>
				<g>
					<g>
						<polygon class="st2" points="346.4,172.9 359.2,172.9 359.2,174.7 365.4,171.1 359.2,167.5 359.2,169.4 346.4,169.4 						"/>
					</g>
					<g>
						<polygon class="st3" points="365.4,180.2 352.7,180.2 352.7,178.3 346.4,181.9 352.7,185.6 352.7,183.7 365.4,183.7 						"/>
					</g>
				</g>
				<g>
					<path class="st2" d="M338.6,183.5l-0.6,0.2c0,0-1.9-2.2-2.9-4.5s-1-5.2-1-5.2l0.4-0.2l-2.7-6.5c-0.5,0.4-0.9,0.9-1.3,1.5
						c-1.5,2.6-1.4,6.6,0.2,10.4s3.2,7.3,6.2,9.5c1.8,1.3,3.3,1.5,4.5,1.3L338.6,183.5z"/>
					<path class="st2" d="M340.5,182.7l-0.8,0.3l2.8,6.6c0.3-0.1,0.6-0.2,0.8-0.4c0.7-0.4,1-1.2,0.7-2l-1.4-3.6
						C342.2,182.8,341.3,182.4,340.5,182.7z"/>
					<path class="st2" d="M333.9,166.2c-0.3,0.1-0.7,0.3-1.1,0.5l2.8,6.6l0.9-0.4c0.8-0.3,1.2-1.2,0.9-2.1l-1.5-3.7
						C335.6,166.3,334.7,165.9,333.9,166.2z"/>
				</g>
			</g>
		</g>
		<g>
			<path class="st4" d="M83.6,300.4v-74.5c0,0-0.8-20.1,9.7-25.9s55-2.7,55-2.7v103L83.6,300.4L83.6,300.4z"/>
		</g>
		<g>
			<g>
				<path class="st5" d="M162.3,127.6c0,0-2.7,22.6-3.7,24.4s-1,1.9-1,1.9l-5.2,3.5c0,0,9.9,14.1,22.1,16.3c12.2,2.3,11.2-5,11.2-5
					l-1.9-3.9l2.5-21.5C186.3,143.4,164.2,133.2,162.3,127.6z"/>
			</g>
			<path class="st3" d="M146,159.3l8.1-3.5c0,0,5.2,8.5,17.2,13.4s12.2,2.1,12.8,0s-0.2-4.3-0.2-4.3l0.9-7.2l4.8,1.6L206.2,294
				l-42.8,2.1L146,159.3z"/>
			<g>
				<path class="st2" d="M185.5,157.8c0,0,2.9,6.7,5.6,22.4c2.7,15.7,5.2,42.2,5.8,60.4s1,59.8,1,59.8s53.4,0,54,0
					s4.3-20.5,4.3-20.5s-23.6-20.2-24.8-23.5c-0.8-2.2-0.4-43.1-3.9-61.9s-8.1-22.6-17.6-27.3C200.1,162.3,185.5,157.8,185.5,157.8z
					"/>
			</g>
			<g>
				<path class="st6" d="M213.6,276.7c-0.3,0-0.5-0.2-0.5-0.5c0-1.5-0.3-22.5-0.5-42.8c-0.2-20.3-0.5-41.4-0.5-42.8
					c0-0.3,0.2-0.5,0.5-0.5s0.5,0.2,0.5,0.5c0,1.5,0.3,22.5,0.5,42.8c0.2,20.3,0.5,41.3,0.5,42.8
					C214.1,276.5,213.9,276.7,213.6,276.7z"/>
			</g>
			<g>
				<path class="st2" d="M106,271.6l-0.4,28.8h62.9c0,0,2.7-24.4,1.7-26.7C169.1,271.4,106,271.6,106,271.6z"/>
			</g>
			<g>
				<path class="st7" d="M176,151.4c2.6,2.1,6.1,3.7,8.8,4.7l1.5-12.8c0,0-16.6-7.6-22.3-13.3C165.2,136.5,168.1,145,176,151.4z"/>
			</g>
			<g>
				<path class="st5" d="M205.8,85.6c0,0,4.3,7.4,5.2,16.6c0.8,9.1,0,32.5-7.5,42.4s-23,7-30,1C167,140.1,160.6,134,159,122
					c-1.7-12,3.5-34.8,18.2-39.5C191.9,77.8,205.8,85.6,205.8,85.6z"/>
			</g>
			<g>
				<g>
					<path class="st5" d="M224.4,287.4c0,0-0.7,0-1.8,0c-0.3,0-0.5,0-0.9,0c-1.1,0-2.4-0.1-3.7-0.1c-0.3,0-0.6,0-0.9,0
						c-1.3,0-2.4,0.1-3.5,0.1h0c-0.2,0-0.5,0-0.8,0c-0.1,0-0.2,0-0.3,0c-0.6-0.1-0.7-0.2-1.4-0.5c-0.8-0.4-12.2-2.9-21.5-2.9
						c-9.2,0-17.5,0.7-18.9-0.5c-1.4-1.1-2.2-12.8,5.7-13.5l9.7,3.7c0,0,22.1-2.6,30.3,3.4C224.7,283,224.4,287.4,224.4,287.4z"/>
				</g>
				<g>
					<g>
						<path class="st2" d="M213.7,287.3c-0.2,0-0.5,0-0.8,0c-0.2-0.3-0.6-0.9-0.9-1.1c-2.5-2.5-8.5-4.2-10.7-4.7
							c-0.2,0-0.3-0.2-0.3-0.5c0-0.2,0.2-0.3,0.5-0.3c3.2,0.8,10,2.7,11.9,6C213.4,286.8,213.6,287.1,213.7,287.3z"/>
					</g>
				</g>
				<g>
					<g>
						<path class="st2" d="M218,287.2c-0.3,0-0.6,0-0.9,0c-2.7-5-7.2-6.4-12.7-8.2l-0.3-0.1c-0.2-0.1-0.3-0.3-0.2-0.5
							c0.1-0.2,0.3-0.3,0.5-0.2l0.3,0.1C210.5,280.2,215.2,281.7,218,287.2z"/>
					</g>
				</g>
				<g>
					<g>
						<path class="st2" d="M222.6,287.4c-0.3,0-0.5,0-0.9,0c-1.7-3.5-7.1-9.3-14.4-10.7c-0.2,0-0.3-0.2-0.3-0.4
							c0-0.2,0.2-0.3,0.4-0.3C214.9,277.4,221,283.4,222.6,287.4z"/>
					</g>
				</g>
			</g>
			<g>
				<path class="st2" d="M164,111.8c0,0,4.6-2.2,7.8-8.3c3.2-6.1,2.8-11.6,2.8-11.6s5.8-0.9,14.5,1.7c8.7,2.6,19,6.1,27.7,1.1
					c8.7-5,8.7-12.9,4.5-16.2c-4.8-3.7-14.2-1.4-14.2-1.4s3.6-3.5,1.7-5.6c-2-2.1-9.1,0.6-9.1,0.6s-8.7-6.9-25.1-6.1
					c-16.4,0.8-24.3,12.3-25.2,25.1c-0.9,12.8,3.7,25.7,3.7,25.7L164,111.8z"/>
			</g>
			<g>
				<g>
					<path class="st7" d="M197.3,114.9c-0.9,2.3-0.9,5-1.1,7.4c-0.2,1.9-0.5,4.1,1.2,5.4c0.8,0.6,4.8,2.3,2.7,3.6
						c-0.8,0.5-2.1,0.4-2.9,0.3c-0.6,0-1.2-0.1-1.8-0.1c-0.6-0.1-1.3-0.2-1.9-0.2c-0.4,0-0.5,0.5-0.2,0.7c1,0.6,2.6,0.9,3.8,0.9
						c1.2,0.1,2,0,3.1-0.6c0.7-0.3,1.3-0.8,1.4-1.6c0.1-0.9-0.6-1.7-1.2-2.2c-0.8-0.6-1.7-0.9-2.5-1.4c-1.1-0.8-1-2.1-0.9-3.3
						c0.2-2.9,0.9-5.8,1.1-8.8C198.1,114.6,197.5,114.6,197.3,114.9L197.3,114.9z"/>
				</g>
			</g>
			<g>
				<path class="st2" d="M205.8,121.8c-0.3,1.7-1.6,3-2.8,2.8c-1.3-0.2-2-1.8-1.7-3.6c0.3-1.7,1.6-3,2.8-2.8
					C205.3,118.5,206.1,120.1,205.8,121.8z"/>
			</g>
			<g>
				<path class="st2" d="M190,120.4c-0.3,1.9-1.6,3.2-3,3c-1.4-0.2-2.2-1.9-1.9-3.8s1.6-3.2,3-3S190.2,118.5,190,120.4z"/>
			</g>
			<g>
				<g>
					<path class="st2" d="M202.1,114.6c1,0.2,1.9,0,2.9,0.1c0.2,0,0.5,0.1,0.7,0.1c0.2,0-0.3-0.1-0.1,0c0,0,0.1,0,0.1,0
						c0.1,0,0.2,0.1,0.4,0.1c0.2,0.1,0.4,0.1,0.6,0.2c0.2,0,0.4,0.1,0.6,0.1c0.1,0,0.2,0,0.3,0c-0.1,0-0.1,0-0.2,0c0,0,0.4,0,0.4,0
						c0.5-0.1,0.9-0.8,0.7-1.3c0-0.2-0.1-0.3-0.2-0.4c0-0.1-0.1-0.1-0.1-0.2c0,0,0.1,0.1,0.1,0.1c0-0.1-0.1-0.1-0.1-0.2
						c0-0.1-0.1-0.2-0.2-0.2c-0.1-0.1-0.1-0.1-0.2-0.2c-0.3-0.2-0.6-0.3-0.9-0.4c-0.6-0.1-1.2-0.2-1.8-0.2c-0.6,0-1.2,0.1-1.8,0.1
						c-0.5,0.1-1.1,0.2-1.5,0.6c-0.3,0.2-0.5,0.6-0.5,1C201.4,114.1,201.7,114.5,202.1,114.6L202.1,114.6z"/>
				</g>
			</g>
			<g>
				<g>
					<path class="st2" d="M191.1,111.8c-0.1-0.1-0.3-0.1-0.4-0.2c-0.1-0.1-0.4-0.2-0.2-0.1c-0.1-0.1-0.2-0.1-0.3-0.1
						c-0.4-0.2-0.8-0.3-1.2-0.4c-0.9-0.2-1.9-0.3-2.9-0.2c-1,0.1-2,0.4-2.9,0.9c-0.1,0.1-0.3,0.1-0.4,0.3c-0.1,0.1-0.1,0.2-0.2,0.3
						c0,0,0-0.1,0.1-0.1c-0.3,0.2-0.4,0.5-0.4,0.8c0,0.3,0.2,0.6,0.4,0.7c0.3,0.2,0.7,0.1,1,0c-0.2,0-0.4,0-0.5,0
						c0.3,0,0.5,0.1,0.8,0c0,0,0.3-0.1,0.1,0c-0.2,0,0.3,0,0.3,0c0.1,0,0.4,0,0,0c0.1,0,0.1,0,0.2,0c0.2,0,0.3,0,0.5-0.1
						c0.7-0.1,1.4-0.1,2.1-0.1c0.6,0,1.3,0,1.9,0c0.3,0,0.5,0,0.8,0c0.1,0,0.1,0,0,0c0.1,0,0.1,0,0.2,0c0.1,0,0.2,0.1,0.3,0.1
						c0.4,0.2,1-0.1,1.1-0.6C191.6,112.6,191.5,112.1,191.1,111.8L191.1,111.8z"/>
				</g>
			</g>
			<g>
				<path class="st2" d="M196,140.6c1-1.9,2.7-3.3,4.7-4.2c-1.7-0.2-9.9-0.9-12,0.2c-2.3,1.3,0.4,6.6,5.2,6.9c0.5,0,1,0,1.4-0.1
					C195.3,142.4,195.5,141.5,196,140.6z"/>
			</g>
			<g>
				<path class="st8" d="M158.2,129.5c0,0,0.8,3.2,5.6,6.9c4.8,3.7,11.7,6.4,11.7,6.4l0.6-2.4c0,0-7.1-3.1-10.4-6.5
					c-3.3-3.4-3.7-5.3-3.7-5.3L158.2,129.5z"/>
			</g>
			<g>
				<path class="st2" d="M176.8,138.7c3.8-0.2,6,2.9,6.2,4.8c0.3,2-1.6,4.2-5.9,2.2C171.8,143.3,173,138.9,176.8,138.7z"/>
			</g>
			<g>
				<path class="st8" d="M161.2,105.8c0,0,1.6-11.9,9.6-20c15.2-15.4,28.1-14.5,28.1-14.5s-0.1-2.2-5-3.8c-4.6-1.6-6.6-0.7-6.6-0.7
					s-12.5,1-23.1,12.7s-11.7,26.6-11.7,26.6L161.2,105.8z"/>
			</g>
			<g>
				<g>
					<path class="st3" d="M160,104.4c-10-1.7-15.5,6.1-15.9,14c-0.4,7.9,5.3,13.8,12.9,13.2C174.2,130.2,172.2,106.4,160,104.4z"/>
				</g>
				<g>
					<path class="st9" d="M155.1,123.9c-2.6,0-4.9-1.3-6.1-3.6c-1.4-2.5-1.2-5.6,0.3-7.8c0.1-0.2,0.4-0.2,0.5-0.1
						c0.2,0.1,0.2,0.4,0.1,0.5c-1.4,2-1.5,4.8-0.2,7c1.2,2.1,3.2,3.3,5.7,3.3c2.3-0.1,4.2-1.1,5.4-2.9c1.4-2.1,1.7-5,0.8-7.4
						c-0.9-2.4-3.4-4-5.6-3.7c-0.2,0-0.4-0.1-0.4-0.3c0-0.2,0.1-0.4,0.3-0.4c2.6-0.4,5.4,1.4,6.4,4.1c1,2.6,0.6,5.8-0.9,8
						c-1.4,2-3.5,3.2-6,3.3C155.2,123.9,155.1,123.9,155.1,123.9z"/>
				</g>
			</g>
			<g>
				<path class="st2" d="M147.8,156.4c0,0-30.2,7.4-40.8,19.4c-10.6,12-15.5,71.2-15.7,82.1c-0.2,11,7.4,15.5,12,18.6
					s24.6,8.7,40.8,9.5s31.4,0,31.4,0s-0.1-3.5,2.4-8.7c2.3-4.8,5.2-5.8,5.2-5.8l-13.9-5c0,0-2.4-43.5-6.2-64.6
					C158.8,177.9,147.8,156.4,147.8,156.4z"/>
			</g>
			<g>
				<path class="st6" d="M197.9,259.7c-0.1,0-0.1,0-0.2,0c-0.2-0.1-0.4-0.4-0.2-0.7c2.8-6.4,5.8-18.9,7.4-27.7l0.1-0.7
					c0.5-2.6,1.1-5.8-0.1-8c-0.6-1.1-2.1-3.6-3.4-6c-1.4-2.5-2.8-4.8-3.1-5.5c-0.7-1.4,1.6-5,4.9-9.9c0.9-1.3,1.7-2.5,2.1-3.3
					c1.2-2,0.4-3.9-0.5-6.1l-0.3-0.8c-0.8-2-1.8-4.1-2.7-6c-0.4-0.8-0.7-1.6-1.1-2.4c-0.5-1.1-1-2.2-1.5-3.3
					c-2.9-6.5-6-13.3-9.8-19.8c-0.1-0.2-0.1-0.5,0.2-0.7c0.2-0.1,0.5-0.1,0.7,0.2c3.9,6.6,6.9,13.3,9.9,19.9c0.5,1.1,1,2.2,1.5,3.2
					c0.4,0.8,0.7,1.6,1.1,2.4c0.9,2,1.9,4,2.7,6.1l0.3,0.7c0.9,2.2,1.9,4.5,0.5,7c-0.5,0.8-1.2,2-2.2,3.3c-1.7,2.6-5.3,8-4.8,8.9
					c0.4,0.7,1.7,3,3.1,5.4c1.4,2.4,2.8,4.8,3.5,6c1.4,2.5,0.8,6,0.2,8.7l-0.1,0.7c-0.6,3.2-3.8,19.6-7.5,27.9
					C198.3,259.6,198.1,259.7,197.9,259.7z"/>
			</g>
			<g>
				<path class="st6" d="M168.4,261.5c-0.1,0-0.3,0-0.4-0.1c-2.4-2.4-13.7-22-14.5-25.7c-0.5-2,0.7-7.1,1.8-12.1
					c0.9-3.8,1.8-7.8,1.5-8.9c-0.4-1.6-3.3-4-6.1-6.3c-3.4-2.8-6.9-5.6-7.6-8.2c-0.8-2.9-0.1-21.3,0.3-33.4c0.2-4.4,0.3-7.8,0.3-9
					c0-0.3,0.2-0.5,0.5-0.5l0,0c0.3,0,0.5,0.2,0.5,0.5c0,1.2-0.1,4.7-0.3,9.1c-0.4,11.3-1.1,30.3-0.4,33.1c0.6,2.3,4.1,5.1,7.2,7.7
					c3.1,2.5,6,4.9,6.4,6.8c0.3,1.3-0.5,5-1.5,9.3c-1.1,4.6-2.2,9.9-1.8,11.7c0.8,3.6,12,22.9,14.3,25.2c0.2,0.2,0.2,0.5,0,0.7
					C168.7,261.4,168.5,261.5,168.4,261.5z"/>
			</g>
			<g>
				<path class="st6" d="M127.8,252.9C127.7,252.9,127.7,252.9,127.8,252.9c-0.3,0-0.5-0.3-0.5-0.6c0.4-2.6,6.1-54.4,6.4-58.4
					c0-0.3,0.3-0.5,0.5-0.5c0.3,0,0.5,0.3,0.5,0.5c-0.3,4-6,55.8-6.4,58.4C128.2,252.7,128,252.9,127.8,252.9z"/>
			</g>
			<g>
				<path class="st6" d="M168.9,267c-0.1,0-0.1,0-0.2,0c-1.3-0.5-6.9-2.4-14-4.8c-14.4-4.8-34-11.5-37.8-13.4
					c-0.2-0.1-0.3-0.4-0.2-0.7c0.1-0.2,0.4-0.3,0.7-0.2c3.7,1.9,24.1,8.8,37.6,13.4c7.1,2.4,12.8,4.3,14.1,4.8
					c0.3,0.1,0.4,0.4,0.3,0.6C169.3,266.8,169.1,267,168.9,267z"/>
			</g>
			<g>
				<path class="st6" d="M162,287.6c-12.6,0-37.1-2.3-55.7-8.9c-0.3-0.1-0.4-0.4-0.3-0.6c0.1-0.3,0.4-0.4,0.6-0.3
					c23.5,8.3,56.4,9.7,62.5,8.4c0.3-0.1,0.5,0.1,0.6,0.4c0.1,0.3-0.1,0.5-0.4,0.6C168,287.4,165.5,287.6,162,287.6z"/>
			</g>
		</g>
		<g>
			<g>
				<g>
					<path class="st10" d="M17.4,163.4c3.9,3.4,8.9,5.7,12.3,9.6c1.3,1.6,2.6,3.2,3.8,4.9c0.9,1.2,3.4,3.2,3.8,4.7
						c0.2,0.7,0.1-0.2,0-0.9c0,0,0-0.1,0-0.1c-0.3-3.1-0.6-6.1-0.7-9.2c-0.1-3.1,0.1-6.1-0.1-9.2c-0.3-4.3-1.6-8.5-5.1-11.2
						c-1.7-1.3-3.9-2.1-5.5-3.6c-1.5-1.4-0.9-3,0-4.5c0.8-1.4,1.8-2.9,2.2-4.6c0.4-1.9-0.3-3.9-1.3-5.5c-2.1-3.4-6.6-7.3-10.9-6.8
						c-3.6,0.4-4,4.6-3.9,7.5c0.1,2.8,0.3,5.6,0.3,8.4c0,2.9-0.5,5.7-0.5,8.6C11.5,156.5,13.8,160.2,17.4,163.4z"/>
					<path class="st10" d="M53.8,208.2c1.1-2.6,2.3-5,3.9-7.4c2.1-3.2,4.5-6.4,5.9-10.1c1.4-3.7,1.2-7.7,1.4-11.6
						c0.1-2.9,1-5.7,0.7-8.6c-0.1-1.4-0.9-3.6-2.7-3.4c-1.4,0.2-2.2,1.9-2.8,3c-0.9,1.9-1.6,4-2.3,6c-0.3,0.8-0.5,1.6-0.9,2.4
						c-0.2,0.4-0.8,1.5-1.4,1.4c-1-0.2-0.1-4.4,0.1-5.1c0.8-3.7,1.9-7.1,2.1-10.9c0.2-5.5-0.2-12.1-5.6-15.1
						c-1.4-0.8-3.2-1.3-4.5-0.1c-1.3,1.2-1.7,3.2-1.9,4.8c-0.6,5.1,0.6,9.9,2.2,14.7c1.3,3.9,2.9,8,3.1,12.3c0.1,4.1-2,7.7-3,11.5
						c-1.6,6.1-1.3,9.4-1.3,11.4c0,2.5,0.1,4.9,0.3,7.4c0.2,2.3,0.4,4.5,0.6,6.8c0.1,0.5,0.1,0.9,0.2,1.4c-0.9-2.1-1.2-4.5-1.9-6.6
						c-1.3-3.8-2.8-7.5-4-11.2c-1-3.1-2-6.3-3.3-9.3c-1.3-2.8-2.8-5.8-5.2-7.9c-1.4-1.2-3.1-2-5.1-2c-1.2,0-2.3,0.4-3.5,0.7
						c-1.4,0.4-2.6,0.2-3.7-0.7c-3.9-3-5-8.3-7.9-12.1c-2.1-2.8-7.2-7.6-10.9-4.5c-2,1.6-2.5,4.8-2.4,7.2c0.1,3,1.4,5.8,3,8.3
						c1.7,2.7,3.8,5.1,5.3,7.8c0.9,1.6,1.1,3.2,0.9,5c-0.1,1.7-0.3,3.4,0.3,5.1c1.8,5,7.3,4.3,11.6,4.4c3,0.1,6.2,0.5,9.1,1.5
						c3.3,1.1,5.4,3.3,6.6,6.5c0.8,2.4,1.3,5,2.9,7c0.8,0.9,1.8,1.6,2.9,2.1c1.7,0.7,6.8,1.1,6.8,0.6c0.1-1.6,0.9-3.2,1.3-4.7
						C51.7,213.6,52.7,210.8,53.8,208.2z"/>
					<path class="st10" d="M77.6,207.2c-0.4-2.9-0.4-6-1.7-8.6c-0.1-0.2-0.4-0.2-0.5-0.1c-1,0.5-1,2.1-1.1,3.1
						c-0.1,1.6,0,3.2-0.2,4.8c-0.3,2.8-1,5.7-2,8.3c-1.1,3-3.2,4.7-6.2,5.6c-1.9,0.6-3.8,1.1-5.4,2.4c-1.4,1.1-2.4,2.7-3.2,4.4
						c-2,4.5-3,9.5-3.9,14.4c-0.6,3.2-1.1,6.5-1.9,9.7s-1.6,6.4-2.1,9.7c-0.1,0.2-0.2,0.3-0.2,0.5c-0.2,0.5,0.6,0.8,0.8,0.4
						c3.1-4.8,6.9-9.1,12.1-11.7c2.3-1.2,5.4-1.4,7.4-3.3c1.5-1.4,1.7-3.6,1.5-5.5c-0.3-2.5-1.5-4.6-2.8-6.8
						c-0.7-1.2-1.5-2.5-1.2-3.9c0.3-1.4,1.4-2.4,2.5-3.1c2.1-1.3,4.7-1.9,6.4-3.9c1.6-1.8,2.5-4,2.7-6.4
						C78.6,213.8,78.1,210.4,77.6,207.2z"/>
					<path class="st10" d="M35.2,223.7c-2.7-3.5-6.1-6.6-9.8-9c-2-1.3-6.7-3.9-7.6,0c-0.6,2.3,1.7,4.5,3.2,6c2.2,2.1,4.8,4,6.6,6.5
						c-2.3,0.7-4.7,0.9-6.7,2.5c-2.4,1.9-3.4,5.5-1.1,7.9c1.2,1.1,2.7,1.8,4.1,2.5c1.9,0.9,3.8,1.7,5.7,2.5
						c4.1,1.7,8.3,3.5,11.8,6.3c3.6,2.9,6.9,7.7,7.2,12.4c0,0.5-0.1,0,0.1-0.2c0.2,0.1,0.6-0.1,0.6-0.4c-0.1-6.9-1.3-13.5-4.2-19.9
						C42.5,234.8,39.2,228.8,35.2,223.7z"/>
				</g>
				<g>
					<path class="st11" d="M25.7,159.2c1.5,3.1,3.1,6.2,4.8,9.3c1.6,2.9,3.2,5.9,4.4,9c1.5,3.9,3.1,7.7,4.6,11.5
						c1.6,4,3.1,8,4.3,12.2c2.3,8.1,4,16.4,4.8,24.8c0.4,4.3,0.6,8.5,0.5,12.8c-0.1,3.3-0.5,6.6-0.8,10c-0.3,3.5-0.6,7-0.3,10.4
						c0.2,2.9,0.7,6.4,3,8.4c0.4,0.4,1.1-0.1,0.8-0.6c-2.7-5.5-2.5-11.5-2-17.4c0.3-3.3,0.7-6.6,0.8-9.9c0.1-4.2,0-8.4-0.4-12.6
						c-0.8-8.2-2.4-16.3-4.5-24.3c-1.1-4.1-2.4-8.1-4-12c-1.6-3.9-3.4-7.8-4.9-11.7c-2.7-7.2-6.9-13.5-10.6-20.2
						C26.1,158.5,25.6,158.8,25.7,159.2L25.7,159.2z"/>
				</g>
				<g>
					<path class="st11" d="M48.8,217.8c0.4-5.2,0.9-10.2,2.7-15.2c0.8-2.3,1.8-4.6,2.6-6.9c0.7-1.9,1.6-4.6,1.1-6.6
						c-0.1-0.2-0.4-0.2-0.4,0c-0.3,1.2-0.3,2.5-0.5,3.6c-0.2,1.2-0.6,2.3-0.9,3.5c-0.8,2.4-1.8,4.7-2.7,7.1
						c-1.7,4.6-2.6,9.7-2.2,14.5C48.5,218,48.8,218,48.8,217.8L48.8,217.8z"/>
				</g>
				<g>
					<path class="st11" d="M18.5,187.8c2.1,5,8.3,5.3,12.8,6.4c3.2,0.8,5.6,3,7.3,5.8c1.9,3.1,3.2,6.7,4.2,10.1c0,0,0.1,0,0.1,0
						c-1.3-6-3.1-13.2-9.3-16c-5-2.2-11.5-1.1-14.6-6.5C18.9,187.3,18.4,187.5,18.5,187.8L18.5,187.8z"/>
				</g>
				<g>
					<path class="st11" d="M45.5,217c0.2,0.3,0.5,0.7,0.7,1c0.1,0.2,0.2,0.3,0.4,0.4s0.3,0.3,0.6,0.3c0.1,0,0.2-0.1,0.1-0.2
						c-0.1-0.2-0.3-0.3-0.4-0.4c-0.2-0.1-0.3-0.3-0.4-0.4c-0.3-0.3-0.6-0.6-0.8-0.9C45.6,216.8,45.5,216.9,45.5,217L45.5,217z"/>
				</g>
				<g>
					<path class="st11" d="M32.6,232.9c3.6,2.9,6.9,6.4,9.5,10.2c1.2,1.8,2.4,3.7,3.5,5.7c1.1,2.1,1.9,4.4,2.8,6.6
						c0.1,0.2,0.4,0.2,0.3,0c-0.5-4.7-3.5-8.7-5.9-12.7c-1.2-2-2.8-3.7-4.4-5.4c-1.7-1.8-3.5-3.4-5.5-4.8
						C32.6,232.3,32.3,232.7,32.6,232.9L32.6,232.9z"/>
				</g>
				<g>
					<path class="st11" d="M61,227.3c-1.7,1-1.8,3.7-1.8,5.4c-0.1,3.3,0.8,6.5-0.7,9.6c-1.3,2.9-3.4,5.3-5.1,7.9
						c-1.6,2.5-3.1,5.7-3.1,8.7c0,0.2,0.3,0.3,0.3,0.1c0.6-1.4,0.8-2.9,1.3-4.3c0.5-1.6,1.2-3.1,2.1-4.5c1.6-2.5,3.6-4.7,4.9-7.4
						c1.4-2.8,1.2-5.6,1.1-8.6c-0.1-1.9-0.2-5.1,1.3-6.5C61.6,227.5,61.3,227.2,61,227.3L61,227.3z"/>
				</g>
			</g>
			<path class="st3" d="M49.5,259.3c-6.9-0.1-20.1-0.2-20.1-0.2l3.3,24.3c0.7,5.5,5.4,9.5,10.9,9.5h5.7h0.6h5.7
				c5.5,0,10.2-4.1,10.9-9.5l3.3-24.3C69.6,259.2,56.4,259.2,49.5,259.3z"/>
		</g>
		<g>
			<g>
				<g>
					<polygon class="st12" points="384.6,214.7 345.1,293.1 229.8,293.9 265.3,213.6 					"/>
				</g>
				<g>
					<path class="st13" d="M153.2,293.4l0-6.3h74.6l34.3-75.3h119.4l3,2.9H268l-35.7,78.6C232.3,293.4,153.2,293.2,153.2,293.4z"/>
				</g>
				<g>
					<path class="st13" d="M324.7,258c-1.3,3.9-8.4,6.9-15.8,6.7s-12.4-3.5-11.1-7.4c1.3-3.9,8.4-6.9,15.8-6.7
						C321.1,250.7,326,254.1,324.7,258z"/>
				</g>
			</g>
			<g>
				<path class="st3" d="M232.3,293.9c-0.1,0-0.1,0-0.2,0c-0.2-0.1-0.4-0.4-0.2-0.7l35.8-78.9h116.9c0.3,0,0.5,0.2,0.5,0.5
					s-0.2,0.5-0.5,0.5H268.3l-35.6,78.3C232.7,293.8,232.5,293.9,232.3,293.9z"/>
			</g>
		</g>
		<g>
			<g>
				<rect x="10.9" y="299.4" class="st14" width="137.2" height="30.4"/>
				<rect x="147.2" y="299.4" class="st15" width="246.8" height="30.4"/>
			</g>
			<polygon class="st16" points="148,299.4 147.2,299.4 10.9,299.4 10.9,304.9 147.2,304.9 148,304.9 394,304.9 394,299.4 			"/>
			<rect x="4.2" y="293.4" class="st17" width="149.8" height="7.5"/>
			<rect x="153.2" y="293.4" class="st18" width="246.8" height="7.5"/>
		</g>
		<g>
			<path class="st3" d="M113.4,133.8H65c-3,0-5.4-2.4-5.4-5.4v-24.2c0-3,2.4-5.4,5.4-5.4h48.4c3,0,5.4,2.4,5.4,5.4v24.2
				C118.8,131.4,116.4,133.8,113.4,133.8z"/>
			<polygon class="st3" points="132.6,116.3 114.4,108.6 114.4,124 			"/>
			<g>
				<circle class="st2" cx="77.7" cy="116.3" r="3.4"/>
				<circle class="st2" cx="89.2" cy="116.3" r="3.4"/>
				<circle class="st2" cx="100.7" cy="116.3" r="3.4"/>
			</g>
		</g>
		<g>
			<path class="st1" d="M359.9,24.4H248.1c-7.2,0-13,5.8-13,13v53c0,7.2,5.8,13,13,13h10c0.3,4.8-0.4,12-4.4,21.1
				c12.9-6,20.4-14.9,24.2-21.1h82c7.2,0,13-5.8,13-13v-53C372.9,30.2,367.1,24.4,359.9,24.4z"/>
			<path class="st3" d="M312.2,49.7h-55.5c-1.5,0-2.8-1.2-2.8-2.8l0,0c0-1.5,1.2-2.8,2.8-2.8h55.5c1.5,0,2.8,1.2,2.8,2.8l0,0
				C315,48.4,313.8,49.7,312.2,49.7z"/>
			<path class="st19" d="M352,65.7h-96.3c-0.9,0-1.7-0.8-1.7-1.7l0,0c0-0.9,0.8-1.7,1.7-1.7H352c0.9,0,1.7,0.8,1.7,1.7l0,0
				C353.7,65,352.9,65.7,352,65.7z"/>
			<path class="st19" d="M352,75.1h-96.3c-0.9,0-1.7-0.8-1.7-1.7l0,0c0-0.9,0.8-1.7,1.7-1.7H352c0.9,0,1.7,0.8,1.7,1.7l0,0
				C353.7,74.4,352.9,75.1,352,75.1z"/>
			<path class="st19" d="M331,85.1h-75.3c-0.9,0-1.7-0.8-1.7-1.7l0,0c0-0.9,0.8-1.7,1.7-1.7H331c0.9,0,1.7,0.8,1.7,1.7l0,0
				C332.7,84.4,331.9,85.1,331,85.1z"/>
			<path class="st3" d="M351.2,49.7h-26.5c-1.5,0-2.8-1.2-2.8-2.8l0,0c0-1.5,1.2-2.8,2.8-2.8h26.5c1.5,0,2.8,1.2,2.8,2.8l0,0
				C354,48.4,352.8,49.7,351.2,49.7z"/>
		</g>
		<g>
			<path class="st3" d="M284.6,171.6h-30c-1.1,0-2-0.9-2-2v-20.5c0-1.1,0.9-2,2-2h30c1.1,0,2,0.9,2,2v20.5
				C286.6,170.7,285.7,171.6,284.6,171.6z"/>
			<g>
				<g>
					<path class="st17" d="M269.8,163c-0.2,0-0.3-0.1-0.5-0.2l-16.4-13.5c-0.3-0.3-0.4-0.7-0.1-1.1c0.3-0.3,0.7-0.4,1.1-0.1
						l15.9,13.1l15.5-13.4c0.3-0.3,0.8-0.2,1.1,0.1c0.3,0.3,0.2,0.8-0.1,1.1l-15.9,13.9C270.1,163,269.9,163,269.8,163z"/>
				</g>
				<g>
					<path class="st17" d="M253.4,171.1c-0.2,0-0.4-0.1-0.5-0.2c-0.3-0.3-0.3-0.8,0-1.1l11.4-12c0.3-0.3,0.8-0.3,1.1,0
						c0.3,0.3,0.3,0.8,0,1.1l-11.4,12C253.8,171,253.6,171.1,253.4,171.1z"/>
				</g>
				<g>
					<path class="st17" d="M285.7,170.6c-0.2,0-0.4-0.1-0.5-0.2L273.8,159c-0.3-0.3-0.3-0.8,0-1.1s0.8-0.3,1.1,0l11.4,11.4
						c0.3,0.3,0.3,0.8,0,1.1C286.1,170.6,285.9,170.6,285.7,170.6z"/>
				</g>
			</g>
			<g>
				<g>
					<circle class="st20" cx="288.1" cy="146.4" r="10"/>
				</g>
				<text transform="matrix(1 0 0 1 281.073 150.8131)" class="st3 st21 st22">85</text>
			</g>
		</g>
		<g>
			<g>
				<path class="st2" d="M388.9,142.7h-58.6c-2.2,0-4-1.8-4-4v-9.2c0-2.2,1.8-4,4-4h58.6c2.2,0,4,1.8,4,4v9.2
					C392.9,140.9,391.1,142.7,388.9,142.7z"/>
			</g>
			<g>
				<path class="st3" d="M334.5,138.6c-0.3,0-0.5-0.1-0.6-0.3s-0.2-0.4-0.2-0.7l0.2-2.2c0-0.1,0-0.1,0-0.1s-0.1,0-0.1,0l-1.8,1.3
					c-0.2,0.2-0.5,0.2-0.7,0.2c-0.2-0.1-0.4-0.2-0.6-0.4c-0.2-0.3-0.2-0.6-0.1-0.8s0.3-0.4,0.5-0.5l2-0.9c0.1,0,0.1-0.1,0.1-0.1
					c0,0,0-0.1-0.1-0.1l-2-0.9c-0.3-0.1-0.4-0.3-0.5-0.5c-0.1-0.2,0-0.5,0.1-0.7c0.1-0.2,0.4-0.4,0.6-0.4s0.5,0,0.7,0.1l1.8,1.4
					c0.1,0,0.1,0.1,0.1,0s0-0.1,0-0.1l-0.2-2.2c0-0.3,0.1-0.5,0.2-0.7c0.2-0.2,0.4-0.3,0.7-0.3c0.3,0,0.5,0.1,0.6,0.3
					c0.2,0.2,0.2,0.4,0.2,0.7l-0.2,2.2c0,0.1,0,0.1,0,0.1s0.1,0,0.1,0l1.8-1.3c0.2-0.2,0.5-0.2,0.7-0.2c0.2,0.1,0.5,0.2,0.6,0.4
					c0.2,0.3,0.2,0.6,0.1,0.8c-0.1,0.2-0.3,0.4-0.5,0.5l-2,0.9c-0.1,0-0.1,0.1-0.1,0.1c0,0,0,0.1,0.1,0.1l2,0.9
					c0.3,0.1,0.4,0.3,0.5,0.5s0,0.5-0.1,0.7c-0.1,0.2-0.3,0.4-0.6,0.4c-0.2,0.1-0.5,0-0.7-0.1l-1.8-1.4c-0.1,0-0.1-0.1-0.1,0
					s0,0.1,0,0.1l0.2,2.2c0,0.3,0,0.5-0.2,0.7C335,138.5,334.8,138.6,334.5,138.6z"/>
			</g>
			<g>
				<path class="st3" d="M346.6,138.6c-0.3,0-0.5-0.1-0.6-0.3s-0.2-0.4-0.2-0.7l0.2-2.2c0-0.1,0-0.1,0-0.1s-0.1,0-0.1,0l-1.8,1.3
					c-0.2,0.2-0.5,0.2-0.7,0.2c-0.2-0.1-0.4-0.2-0.6-0.4c-0.2-0.3-0.2-0.6-0.1-0.8s0.3-0.4,0.5-0.5l2-0.9c0.1,0,0.1-0.1,0.1-0.1
					c0,0,0-0.1-0.1-0.1l-2-0.9c-0.3-0.1-0.4-0.3-0.5-0.5c-0.1-0.2,0-0.5,0.1-0.7c0.1-0.2,0.4-0.4,0.6-0.4s0.5,0,0.7,0.1l1.8,1.4
					c0.1,0,0.1,0.1,0.1,0s0-0.1,0-0.1l-0.2-2.2c0-0.3,0.1-0.5,0.2-0.7c0.2-0.2,0.4-0.3,0.7-0.3c0.3,0,0.5,0.1,0.6,0.3
					c0.2,0.2,0.2,0.4,0.2,0.7l-0.2,2.2c0,0.1,0,0.1,0,0.1s0.1,0,0.1,0l1.8-1.3c0.2-0.2,0.5-0.2,0.7-0.2c0.2,0.1,0.4,0.2,0.6,0.4
					c0.2,0.3,0.2,0.6,0.1,0.8c-0.1,0.2-0.3,0.4-0.5,0.5l-2,0.9c-0.1,0-0.1,0.1-0.1,0.1c0,0,0,0.1,0.1,0.1l2,0.9
					c0.3,0.1,0.4,0.3,0.5,0.5s0,0.5-0.1,0.7c-0.1,0.2-0.3,0.4-0.6,0.4c-0.2,0.1-0.5,0-0.7-0.1l-1.8-1.4c-0.1,0-0.1-0.1-0.1,0
					s0,0.1,0,0.1l0.2,2.2c0,0.3,0,0.5-0.2,0.7C347.2,138.5,346.9,138.6,346.6,138.6z"/>
			</g>
			<g>
				<path class="st3" d="M358.8,138.6c-0.3,0-0.5-0.1-0.6-0.3s-0.2-0.4-0.2-0.7l0.2-2.2c0-0.1,0-0.1,0-0.1s-0.1,0-0.1,0l-1.8,1.3
					c-0.2,0.2-0.5,0.2-0.7,0.2c-0.2-0.1-0.4-0.2-0.6-0.4c-0.2-0.3-0.2-0.6-0.1-0.8s0.3-0.4,0.5-0.5l2-0.9c0.1,0,0.1-0.1,0.1-0.1
					c0,0,0-0.1-0.1-0.1l-2-0.9c-0.3-0.1-0.4-0.3-0.5-0.5c-0.1-0.2,0-0.5,0.1-0.7c0.1-0.2,0.4-0.4,0.6-0.4s0.5,0,0.7,0.1l1.8,1.4
					c0.1,0,0.1,0.1,0.1,0s0-0.1,0-0.1l-0.2-2.2c0-0.3,0.1-0.5,0.2-0.7c0.2-0.2,0.4-0.3,0.7-0.3c0.3,0,0.5,0.1,0.6,0.3
					c0.2,0.2,0.2,0.4,0.2,0.7l-0.2,2.2c0,0.1,0,0.1,0,0.1s0.1,0,0.1,0l1.8-1.3c0.2-0.2,0.5-0.2,0.7-0.2c0.2,0.1,0.5,0.2,0.6,0.4
					c0.2,0.3,0.2,0.6,0.1,0.8c-0.1,0.2-0.3,0.4-0.5,0.5l-2,0.9c-0.1,0-0.1,0.1-0.1,0.1c0,0,0,0.1,0.1,0.1l2,0.9
					c0.3,0.1,0.4,0.3,0.5,0.5s0,0.5-0.1,0.7c-0.1,0.2-0.3,0.4-0.6,0.4c-0.2,0.1-0.5,0-0.7-0.1l-1.8-1.4c-0.1,0-0.1-0.1-0.1,0
					s0,0.1,0,0.1l0.2,2.2c0,0.3,0,0.5-0.2,0.7C359.3,138.5,359.1,138.6,358.8,138.6z"/>
			</g>
			<g>
				<path class="st3" d="M370.9,138.6c-0.3,0-0.5-0.1-0.6-0.3s-0.2-0.4-0.2-0.7l0.2-2.2c0-0.1,0-0.1,0-0.1s-0.1,0-0.1,0l-1.8,1.3
					c-0.2,0.2-0.5,0.2-0.7,0.2c-0.2-0.1-0.4-0.2-0.6-0.4c-0.2-0.3-0.2-0.6-0.1-0.8s0.3-0.4,0.5-0.5l2-0.9c0.1,0,0.1-0.1,0.1-0.1
					c0,0,0-0.1-0.1-0.1l-2-0.9c-0.3-0.1-0.4-0.3-0.5-0.5c-0.1-0.2,0-0.5,0.1-0.7c0.1-0.2,0.4-0.4,0.6-0.4s0.5,0,0.7,0.1l1.8,1.4
					c0.1,0,0.1,0.1,0.1,0s0-0.1,0-0.1l-0.2-2.2c0-0.3,0.1-0.5,0.2-0.7c0.2-0.2,0.4-0.3,0.7-0.3c0.3,0,0.5,0.1,0.6,0.3
					c0.2,0.2,0.2,0.4,0.2,0.7l-0.2,2.2c0,0.1,0,0.1,0,0.1s0.1,0,0.1,0l1.8-1.3c0.2-0.2,0.5-0.2,0.7-0.2c0.2,0.1,0.5,0.2,0.6,0.4
					c0.2,0.3,0.2,0.6,0.1,0.8c-0.1,0.2-0.3,0.4-0.5,0.5l-2,0.9c-0.1,0-0.1,0.1-0.1,0.1c0,0,0,0.1,0.1,0.1l2,0.9
					c0.3,0.1,0.4,0.3,0.5,0.5s0,0.5-0.1,0.7c-0.1,0.2-0.3,0.4-0.6,0.4c-0.2,0.1-0.5,0-0.7-0.1l-1.8-1.4c-0.1,0-0.1-0.1-0.1,0
					s0,0.1,0,0.1l0.2,2.2c0,0.3,0,0.5-0.2,0.7C371.4,138.5,371.2,138.6,370.9,138.6z"/>
			</g>
			<g>
				<path class="st23" d="M383,138.6c-0.3,0-0.5-0.1-0.6-0.3s-0.2-0.4-0.2-0.7l0.2-2.2c0-0.1,0-0.1,0-0.1s-0.1,0-0.1,0l-1.8,1.3
					c-0.2,0.2-0.5,0.2-0.7,0.2c-0.2-0.1-0.4-0.2-0.6-0.4c-0.2-0.3-0.2-0.6-0.1-0.8s0.3-0.4,0.5-0.5l2-0.9c0.1,0,0.1-0.1,0.1-0.1
					c0,0,0-0.1-0.1-0.1l-2-0.9c-0.3-0.1-0.4-0.3-0.5-0.5c-0.1-0.2,0-0.5,0.1-0.7c0.1-0.2,0.4-0.4,0.6-0.4s0.5,0,0.7,0.1l1.8,1.4
					c0.1,0,0.1,0.1,0.1,0s0-0.1,0-0.1l-0.2-2.2c0-0.3,0.1-0.5,0.2-0.7c0.2-0.2,0.4-0.3,0.7-0.3c0.3,0,0.5,0.1,0.6,0.3
					c0.2,0.2,0.2,0.4,0.2,0.7l-0.2,2.2c0,0.1,0,0.1,0,0.1s0.1,0,0.1,0l1.8-1.3c0.2-0.2,0.5-0.2,0.7-0.2c0.2,0.1,0.5,0.2,0.6,0.4
					c0.2,0.3,0.2,0.6,0.1,0.8c-0.1,0.2-0.3,0.4-0.5,0.5l-2,0.9c-0.1,0-0.1,0.1-0.1,0.1c0,0,0,0.1,0.1,0.1l2,0.9
					c0.3,0.1,0.4,0.3,0.5,0.5s0,0.5-0.1,0.7c-0.1,0.2-0.3,0.4-0.6,0.4c-0.2,0.1-0.5,0-0.7-0.1l-1.8-1.4c-0.1,0-0.1-0.1-0.1,0
					s0,0.1,0,0.1l0.2,2.2c0,0.3,0,0.5-0.2,0.7C383.5,138.5,383.3,138.6,383,138.6z"/>
			</g>
		</g>
	</g>
</g>
</svg>
